<svg version="1.1" id="logo" xmlns="http://www.w3.org/2000/svg" xmlns:xlink="http://www.w3.org/1999/xlink" x="0px" y="0px" viewBox="0 0 245 44" enable-background="new 0 0 245 44" xml:space="preserve"><g><g id="XMLID_254_"><g id="XMLID_257_"><g id="XMLID_258_"><path id="XMLID_259_" d="M34.955,8.757l-0.443,3.21c-1.399,0.565-1.737,0.799-2.503,1.381
                c-2.076,1.666-2.864,5.037-1.919,8.207c0.13,0.381,0.439,1.356,0.707,2.627c0.476,2.239,0.609,4.325,0.391,6.203
                c-0.194,1.733-0.591,3.238-1.199,4.589c-0.617,1.371-1.457,2.602-2.573,3.761c-0.706,0.736-2.454,2.339-4.022,3.14
                c-3.253,1.667-7.367,2.166-10.863,1.463c-3.847-0.774-6.712-2.365-9.166-5.281L3.326,38.01c-1.264-1.534-2.18-3.277-2.724-5.183
                c-0.551-1.939-0.687-3.953-0.406-5.984c0.444-3.217,1.85-6.127,4.059-8.418c1.076-1.117,2.311-2.049,3.68-2.776
                c1.381-0.73,2.866-1.238,4.409-1.501l0.474,2.791c-1.243,0.215-2.441,0.62-3.559,1.213c-1.1,0.586-2.097,1.339-2.967,2.239
                c-1.791,1.856-2.93,4.224-3.293,6.843c-0.226,1.64-0.117,3.259,0.327,4.821c0.434,1.524,1.17,2.921,2.179,4.151l0.026,0.031
                c2.039,2.416,4.641,3.994,7.534,4.564c0.227,0.046,0.457,0.083,0.69,0.117c2.73,0.376,5.619-0.163,8.353-1.56
                c1.133-0.58,2.609-1.89,3.271-2.581c1.776-1.851,2.674-3.858,2.999-6.712c0.183-1.576,0.063-3.358-0.347-5.292
                c-0.246-1.154-0.644-2.379-0.644-2.379c-0.626-2.075-0.69-4.239-0.194-6.261c0.246-1.005,0.629-1.939,1.133-2.776
                c0.529-0.876,1.176-1.627,1.934-2.23l0.023-0.021C31.6,10.102,32.169,9.817,34.955,8.757z M11.546,25.62
                c-0.653,0.714-1.061,1.622-1.204,2.631c-0.15,1.081,0.143,2.246,0.801,3.193c0.716,1.034,2.09,1.92,3.439,2.107
                c1.519,0.21,2.796-0.072,3.887-0.803c1.014-0.607,2.223-1.835,2.349-4.271c0.079-1.506-0.29-3.014-0.466-3.735
                c-0.444-1.826-0.864-3.753-0.901-5.471c-0.039-1.796,0.17-3.566,0.623-5.263c0.459-1.724,1.166-3.339,2.094-4.797
                c0.961-1.521,2.153-2.843,3.534-3.933l0.056-0.046c0.81-0.614,1.494-1.077,2.189-1.481l0.476-3.399
                c-1.556,0.694-2.78,1.413-4.386,2.636l-0.083,0.064c-1.634,1.287-3.039,2.85-4.177,4.643c-1.083,1.701-1.9,3.58-2.436,5.584
                c-0.524,1.951-0.766,3.99-0.721,6.052c0.046,1.994,0.5,4.101,0.98,6.079c0.457,1.864,0.854,3.947-0.689,4.981
                c-1.224,0.826-2.83,0.33-3.446-0.554c-0.194-0.281-0.367-0.675-0.32-1.199c0.076-0.867,0.653-1.477,1.393-1.603l-0.477-2.79
                C13.086,24.41,12.216,24.887,11.546,25.62z"></path></g></g><path id="XMLID_255_" d="M7.94,21.98c1.424-1.476,3.243-2.44,5.261-2.784l0.476,2.793
              c-2.929,0.5-5.183,2.887-5.606,5.947c-0.256,1.836,0.233,3.611,1.373,5.002c2.674,3.171,6.467,3.903,10.329,1.859
              c2.347-1.239,3.294-3.356,3.516-5.313c0.239-2.061-0.463-4.629-0.751-5.444l-0.02-0.055c-1.973-6.388-0.121-13.181,4.607-16.907
              l0.016-0.016c1.541-1.174,2.509-1.711,4.52-2.519l-0.456,3.283c-0.879,0.426-1.487,0.831-2.337,1.478
              c-3.803,3.006-5.27,8.554-3.651,13.821c0.133,0.381,1.231,3.678,0.887,6.68c-0.266,2.314-1.254,5.399-5.04,7.513
              c-2.279,1.274-4.729,1.644-7,1.33c-0.189-0.027-0.376-0.05-0.559-0.094c-2.144-0.509-4.524-1.781-6.222-3.795L7.276,34.75
              C5.614,32.738,4.9,30.182,5.27,27.546C5.566,25.41,6.486,23.484,7.94,21.98z"></path></g><path d="M45.413,29.143c0,4.75,3.054,7.416,6.592,7.416c3.684,0,5.38-2.57,5.914-4.362l4.944,1.793
          c-1.115,3.684-4.653,7.707-10.858,7.707c-6.932,0-12.215-5.38-12.215-12.554c0-7.271,5.283-12.506,12.07-12.506
          c6.35,0,9.84,3.974,10.809,7.756l-5.041,1.842c-0.533-2.085-2.133-4.412-5.72-4.412C48.467,21.823,45.413,24.393,45.413,29.143z"></path><path d="M70.691,40.97h-5.623V7.895h5.623v11.746c1.6-2.084,4.266-2.956,6.738-2.956
          c5.817,0,8.628,4.168,8.628,9.355V40.97h-5.623V27.01c0-2.908-1.309-5.235-4.847-5.235c-3.102,0-4.799,2.327-4.896,5.332V40.97z"></path><path d="M99.408,40.97V7.895h5.623V40.97H99.408z"></path><path d="M109.055,40.97V7.895h5.623V40.97H109.055z"></path><path d="M132.026,33.214c0.194,2.133,1.793,4.023,4.799,4.023c2.327,0,3.538-1.26,3.538-2.715
          c0-1.26-0.872-2.23-2.763-2.617l-3.49-0.776c-4.169-0.921-6.35-3.635-6.35-6.883c0-4.12,3.781-7.61,8.677-7.61
          c6.592,0,8.725,4.265,9.113,6.592l-4.75,1.357c-0.194-1.357-1.212-3.538-4.362-3.538c-1.987,0-3.393,1.26-3.393,2.715
          c0,1.26,0.921,2.181,2.375,2.472l3.587,0.727c4.459,0.969,6.786,3.684,6.786,7.174c0,3.587-2.908,7.561-8.919,7.561
          c-6.835,0-9.452-4.459-9.743-7.126L132.026,33.214z"></path><path d="M158.851,41.6c-6.931,0-11.391-5.478-11.391-12.554c0-6.835,4.508-12.361,11.294-12.361
          c4.169,0,6.301,2.181,6.931,3.781v-3.102h5.478v19.292c0,1.939,0.194,3.829,0.242,4.314h-5.38
          c-0.097-0.533-0.242-1.794-0.242-3.393C164.717,39.855,162.245,41.6,158.851,41.6z M159.482,36.752
          c3.684,0,6.253-3.151,6.253-7.706c0-4.557-2.521-7.466-6.253-7.466c-3.781,0-6.398,2.909-6.398,7.466
          C153.083,33.553,155.555,36.752,159.482,36.752z"></path><path d="M182.978,41.648c-5.623,0-8.919-4.168-8.919-9.403V17.364h5.623v13.863c0,2.908,1.357,5.38,4.75,5.38
          c3.248,0,4.944-2.181,4.944-5.283v-13.96h5.623v19.292c0,1.939,0.145,3.441,0.243,4.314h-5.381
          c-0.097-0.533-0.194-1.648-0.194-2.617C188.504,40.485,185.741,41.648,182.978,41.648z"></path><path d="M202.977,29.143c0,4.75,3.054,7.416,6.592,7.416c3.684,0,5.38-2.57,5.914-4.362l4.944,1.793
          c-1.115,3.684-4.653,7.707-10.858,7.707c-6.932,0-12.215-5.38-12.215-12.554c0-7.271,5.283-12.506,12.07-12.506
          c6.35,0,9.84,3.974,10.809,7.756l-5.041,1.842c-0.533-2.085-2.133-4.412-5.72-4.412C206.03,21.823,202.977,24.393,202.977,29.143z"></path><path d="M244.656,34.232c-1.26,4.121-4.993,7.465-10.664,7.465c-6.399,0-12.07-4.653-12.07-12.651
          c0-7.466,5.526-12.409,11.488-12.409c7.271,0,11.537,4.798,11.537,12.263c0,0.921-0.097,1.697-0.145,1.794h-17.256
          c0.145,3.586,2.957,6.156,6.447,6.156c3.393,0,5.138-1.794,5.914-4.121L244.656,34.232z M239.276,26.574
          c-0.097-2.763-1.939-5.235-5.817-5.235c-3.539,0-5.574,2.714-5.768,5.235H239.276z"></path><g><path d="M89.754,40.97V17.364h5.574V40.97H89.754z"></path><path d="M92.519,6.627c1.91,0,3.456,1.547,3.456,3.456c0,1.91-1.546,3.411-3.456,3.411
          c-1.864,0-3.411-1.5-3.411-3.411C89.108,8.174,90.654,6.627,92.519,6.627z"></path></g><g><path d="M118.718,40.97V17.364h5.574V40.97H118.718z"></path><path d="M121.483,6.627c1.91,0,3.456,1.547,3.456,3.456c0,1.91-1.546,3.411-3.456,3.411
          c-1.864,0-3.411-1.5-3.411-3.411C118.072,8.174,119.618,6.627,121.483,6.627z"></path></g></g></svg>