<?xml version="1.0" encoding="utf-8"?>
<svg viewBox="210.573 200.812 34.901 43.295" xmlns="http://www.w3.org/2000/svg">
  <g id="XMLID_257_" style="" transform="matrix(1, 0, 0, 1, 210.518646, 200.459625)">
    <g id="XMLID_258_" style="">
      <path id="XMLID_259_" d="M34.955,8.757l-0.443,3.21c-1.399,0.565-1.737,0.799-2.503,1.381 c-2.076,1.666-2.864,5.037-1.919,8.207c0.13,0.381,0.439,1.356,0.707,2.627c0.476,2.239,0.609,4.325,0.391,6.203 c-0.194,1.733-0.591,3.238-1.199,4.589c-0.617,1.371-1.457,2.602-2.573,3.761c-0.706,0.736-2.454,2.339-4.022,3.14 c-3.253,1.667-7.367,2.166-10.863,1.463c-3.847-0.774-6.712-2.365-9.166-5.281L3.326,38.01c-1.264-1.534-2.18-3.277-2.724-5.183 c-0.551-1.939-0.687-3.953-0.406-5.984c0.444-3.217,1.85-6.127,4.059-8.418c1.076-1.117,2.311-2.049,3.68-2.776 c1.381-0.73,2.866-1.238,4.409-1.501l0.474,2.791c-1.243,0.215-2.441,0.62-3.559,1.213c-1.1,0.586-2.097,1.339-2.967,2.239 c-1.791,1.856-2.93,4.224-3.293,6.843c-0.226,1.64-0.117,3.259,0.327,4.821c0.434,1.524,1.17,2.921,2.179,4.151l0.026,0.031 c2.039,2.416,4.641,3.994,7.534,4.564c0.227,0.046,0.457,0.083,0.69,0.117c2.73,0.376,5.619-0.163,8.353-1.56 c1.133-0.58,2.609-1.89,3.271-2.581c1.776-1.851,2.674-3.858,2.999-6.712c0.183-1.576,0.063-3.358-0.347-5.292 c-0.246-1.154-0.644-2.379-0.644-2.379c-0.626-2.075-0.69-4.239-0.194-6.261c0.246-1.005,0.629-1.939,1.133-2.776 c0.529-0.876,1.176-1.627,1.934-2.23l0.023-0.021C31.6,10.102,32.169,9.817,34.955,8.757z M11.546,25.62 c-0.653,0.714-1.061,1.622-1.204,2.631c-0.15,1.081,0.143,2.246,0.801,3.193c0.716,1.034,2.09,1.92,3.439,2.107 c1.519,0.21,2.796-0.072,3.887-0.803c1.014-0.607,2.223-1.835,2.349-4.271c0.079-1.506-0.29-3.014-0.466-3.735 c-0.444-1.826-0.864-3.753-0.901-5.471c-0.039-1.796,0.17-3.566,0.623-5.263c0.459-1.724,1.166-3.339,2.094-4.797 c0.961-1.521,2.153-2.843,3.534-3.933l0.056-0.046c0.81-0.614,1.494-1.077,2.189-1.481l0.476-3.399 c-1.556,0.694-2.78,1.413-4.386,2.636l-0.083,0.064c-1.634,1.287-3.039,2.85-4.177,4.643c-1.083,1.701-1.9,3.58-2.436,5.584 c-0.524,1.951-0.766,3.99-0.721,6.052c0.046,1.994,0.5,4.101,0.98,6.079c0.457,1.864,0.854,3.947-0.689,4.981 c-1.224,0.826-2.83,0.33-3.446-0.554c-0.194-0.281-0.367-0.675-0.32-1.199c0.076-0.867,0.653-1.477,1.393-1.603l-0.477-2.79 C13.086,24.41,12.216,24.887,11.546,25.62z" style=""/>
    </g>
  </g>
</svg>