<svg xmlns="http://www.w3.org/2000/svg" viewBox="0 0 24 24">
            <g stroke-linecap="round" stroke-linejoin="round">
                <path
                    d="M.5 19.989a3.5 3.5 0 107 0 3.5 3.5 0 10-7 0zM.628 15.276a6 6 0 016.117-.376M18.966 14.865l-1.497-3.938M22.454 14.361a6.032 6.032 0 00-3.891-.554M16.5 19.989a3.5 3.5 0 107 0 3.5 3.5 0 10-7 0zM13.417 15.156l2.539-.973a.5.5 0 01.679.46v.318a3 3 0 01-.817 2.1l-1.78 1.887M13.979 3.25H15.5M9.729 4.958a2.284 2.284 0 004.193-1.251V3.25"
                />
                <path
                    d="M13.979 3.25H11.5c-.813 0-1.8 2.386-2.3 1.824a2.74 2.74 0 114.779-1.824zM10.5 21.989a1.5 1.5 0 01-1.5-1.5v-2.612A2.794 2.794 0 007.68 15.5L5.7 14.261a1.5 1.5 0 01-.433-2.131l3.5-5a1.5 1.5 0 012.531.116l.76 1.33A2.815 2.815 0 0014.5 9.989a1.5 1.5 0 010 3 5.806 5.806 0 01-4.592-2.252l-1.272 1.818.635.4A5.781 5.781 0 0112 17.877v2.612a1.5 1.5 0 01-1.5 1.5z"
                />
            </g>
        </svg>