<svg xmlns="http://www.w3.org/2000/svg" viewBox="0 0 24 24">
            <g stroke-linecap="round" stroke-linejoin="round">
                <path
                    d="M.5 22l.866 1.14a1 1 0 001.536 0l.964-1.156a1 1 0 011.536 0l.964 1.156a1 1 0 001.536 0l.964-1.156a1 1 0 011.536 0l.964 1.156a1 1 0 001.536 0l.964-1.156a1 1 0 011.536 0l.964 1.156a1 1 0 001.536 0l.964-1.156a1 1 0 011.536 0l.964 1.156a1 1 0 001.536 0l.6-.717M11 19.126a8.463 8.463 0 015-1.626h7.5M22.261 7.155a1 1 0 00.452-1.569A10 10 0 004.9 11.785a1 1 0 001.329.95zM11.615 2.39L10.958.501M14.245 9.945l2.629 7.556"
                />
            </g>
        </svg>