<svg xmlns="http://www.w3.org/2000/svg" viewBox="0 0 24 24">
            <g stroke-linecap="round" stroke-linejoin="round">
                <path
                    d="M17.5 18.5h3.144a1.937 1.937 0 001.856-2v-3a2.006 2.006 0 00-2-2h-3M19 22a1.5 1.5 0 01-1.5 1.5h-12A1.5 1.5 0 014 22h0a1.505 1.505 0 011.5-1.5h12A1.505 1.505 0 0119 22zM5.5 15.5v5M17.5 20.5l.001-11M14.5 12v6.5M11.5 15v3.5M8.5 16v2.5M17.5 3.5a5.577 5.577 0 00-9.934.081A4 4 0 105.5 11h0a3 3 0 006 0v-.5a1 1 0 011-1h5a3 3 0 000-6z"
                />
            </g>
        </svg>