<svg viewBox="0 0 24 24" xmlns="http://www.w3.org/2000/svg">
            <g stroke-linecap="round" stroke-linejoin="round">
                <path d="M12.016 20.5c0-2 .984-3 2.984-3h5a1 1 0 0 0 1-1v-14a1 1 0 0 0-1-1h-5a2.652 2.652 0 0 0-3 3 2.652 2.652 0 0 0-3-3H4a1 1 0 0 0-1 1v14a1 1 0 0 0 1 1h5c2 0 3.016 1 3.016 3Z" />
                <path d="M21 3.5h1a1 1 0 0 1 1 1v14a1 1 0 0 1-1 1h-5c-2 0-3.5 1-3.5 3h-3c0-2-1.5-3-3.5-3H2a1 1 0 0 1-1-1v-14a1 1 0 0 1 1-1h1M12 4.5V20" />
            </g>
        </svg>