        <svg xmlns="http://www.w3.org/2000/svg" viewBox="-1 -1 26 26" >
            <path
                d="M1.75.25h3.5s1.5 0 1.5 1.5v3.5s0 1.5-1.5 1.5h-3.5s-1.5 0-1.5-1.5v-3.5s0-1.5 1.5-1.5M1.75 8.75h3.5s1.5 0 1.5 1.5v3.5s0 1.5-1.5 1.5h-3.5s-1.5 0-1.5-1.5v-3.5s0-1.5 1.5-1.5M1.75 17.25h3.5s1.5 0 1.5 1.5v3.5s0 1.5-1.5 1.5h-3.5s-1.5 0-1.5-1.5v-3.5s0-1.5 1.5-1.5M10.25.25h3.5s1.5 0 1.5 1.5v3.5s0 1.5-1.5 1.5h-3.5s-1.5 0-1.5-1.5v-3.5s0-1.5 1.5-1.5M10.25 8.75h3.5s1.5 0 1.5 1.5v3.5s0 1.5-1.5 1.5h-3.5s-1.5 0-1.5-1.5v-3.5s0-1.5 1.5-1.5M10.25 17.25h3.5s1.5 0 1.5 1.5v3.5s0 1.5-1.5 1.5h-3.5s-1.5 0-1.5-1.5v-3.5s0-1.5 1.5-1.5M18.75.25h3.5s1.5 0 1.5 1.5v3.5s0 1.5-1.5 1.5h-3.5s-1.5 0-1.5-1.5v-3.5s0-1.5 1.5-1.5M18.75 8.75h3.5s1.5 0 1.5 1.5v3.5s0 1.5-1.5 1.5h-3.5s-1.5 0-1.5-1.5v-3.5s0-1.5 1.5-1.5M18.75 17.25h3.5s1.5 0 1.5 1.5v3.5s0 1.5-1.5 1.5h-3.5s-1.5 0-1.5-1.5v-3.5s0-1.5 1.5-1.5"
            />
        </svg>