            <svg xmlns="http://www.w3.org/2000/svg" viewBox="-1 -1 26 26" >
            <path
                fill-rule="evenodd"
                d="M1.902.25A1.65 1.65 0 0 0 .252 1.9v7.2a1.65 1.65 0 0 0 1.65 1.65h7.2a1.65 1.65 0 0 0 1.65-1.65V1.9A1.65 1.65 0 0 0 9.102.25h-7.2Zm12.997 0a1.65 1.65 0 0 0-1.65 1.65v7.2a1.65 1.65 0 0 0 1.65 1.65h7.2a1.65 1.65 0 0 0 1.65-1.65V1.9a1.65 1.65 0 0 0-1.65-1.65h-7.2ZM.735 13.733c.31-.31.73-.483 1.167-.483h7.2a1.65 1.65 0 0 1 1.65 1.65v7.2a1.65 1.65 0 0 1-1.65 1.65h-7.2a1.65 1.65 0 0 1-1.65-1.65v-7.2c0-.438.174-.857.483-1.167ZM14.9 13.25a1.65 1.65 0 0 0-1.65 1.65v7.2a1.65 1.65 0 0 0 1.65 1.65h7.2a1.65 1.65 0 0 0 1.65-1.65v-7.2a1.65 1.65 0 0 0-1.65-1.65h-7.2Z"
                clip-rule="evenodd"
            />
        </svg>