<svg viewBox="0 0 24 24" xmlns="http://www.w3.org/2000/svg">
            <g stroke-linecap="round" stroke-linejoin="round">
                <path
                    d="M12.001 14.5v2M12.001.5 12 6.5M19.5 23.5h4M6.5 11.5l-2 12h6v-3a1.5 1.5 0 0 1 3 0v3h6l-2-12M.5 23.5h4M10 7v-.5H8V7a1.4 1.4 0 0 1-1.281 1.5A1.381 1.381 0 0 1 5.5 7v-.5H4a.5.5 0 0 0-.5.5v3A1.5 1.5 0 0 0 5 11.5h14a1.5 1.5 0 0 0 1.5-1.5V7a.5.5 0 0 0-.5-.5h-1.5V7a1.5 1.5 0 0 1-3 0v-.5h-2V7a1.669 1.669 0 0 1-1.8 1.5A1.611 1.611 0 0 1 10 7ZM12.001.5h5l-1.5 1.5 1.5 1.5h-5"
                />
            </g>
        </svg>