<!-- CarIcon.vue -->
  <svg 
    class="classic-car" 
    xmlns="http://www.w3.org/2000/svg" 
    viewBox="0 0 24 24"
  >
    <!-- Wings -->
    <path 
      class="wing left-wing" 
      stroke-linecap="round" 
      stroke-linejoin="round" 
      d="M5 11.5c2 0 4.5 8 4.5 8H2.842a2 2 0 0 1-1.934-1.487C.294 15.686.109 11.5 5 11.5Z"
    />
    <path 
      class="wing right-wing" 
      stroke-linecap="round" 
      stroke-linejoin="round" 
      d="M19 11.5c-2 0-4.5 8-4.5 8h6.658a2 2 0 0 0 1.934-1.487c.614-2.327.799-6.513-4.092-6.513Z"
    />
    
    <!-- Body Parts -->
    <path 
      class="windscreen" 
      stroke-linecap="round" 
      stroke-linejoin="round" 
      d="M5.953 9.765c.464-2.39 5.794-3.625 9.593-2.224 1.417.522 2.328 1.332 2.501 2.224l.453 1.889c-4.103-1.027-8.897-1.027-13 0l.453-1.889Z"
    />
    <path 
      class="bonnet" 
      stroke-linecap="round" 
      stroke-linejoin="round" 
      d="M9.5 19.5 L14.5 19.5 L18.5 11.878 C14.397 10.851 9.603 10.851 5.5 11.878 L9.5 19.5"
    />
    
    <!-- Wheels -->
    <path 
      class="wheel left-wheel" 
      stroke-linecap="round" 
      stroke-linejoin="round" 
      d="M6.5 19.5V21a.5.5 0 0 1-.5.5H3a.5.5 0 0 1-.5-.5v-1.53"
    />
    <path 
      class="wheel right-wheel" 
      stroke-linecap="round" 
      stroke-linejoin="round" 
      d="M17.5 19.5V21a.5.5 0 0 0 .5.5h3a.5.5 0 0 0 .5-.5v-1.53"
    />
    
    <!-- Lights -->
    <path 
      class="carlight left-light" 
      stroke-linecap="round" 
      stroke-linejoin="round" 
      d="M2.5 15.784a1.5 1.5 0 1 0 3 0 1.5 1.5 0 1 0-3 0Z"
    />
    <path 
      class="carlight right-light" 
      stroke-linecap="round" 
      stroke-linejoin="round" 
      d="M18.5 15.784a1.5 1.5 0 1 0 3 0 1.5 1.5 0 1 0-3 0Z"
    />
  </svg>


