<svg xmlns="http://www.w3.org/2000/svg" viewBox="0 0 24 24">
            <g stroke-linecap="round" stroke-linejoin="round">
                <path d="M.5 12a11.5 11.5 0 1023 0 11.5 11.5 0 10-23 0z" />
                <path d="M14.968 13.641a2 2 0 01-1.077 1.077L7.213 17.5a.5.5 0 01-.662-.631L9.03 9.984a1.994 1.994 0 011.2-1.2L17.12 6.3a.5.5 0 01.631.662z" />
                <path d="M10.5 12a1.5 1.5 0 103 0 1.5 1.5 0 10-3 0zM12 2.5v1M21.5 12h-1M18.718 18.718l-.708-.708M12 21.5v-1M2.5 12h1M5.282 5.282l.708.708" />
            </g>
        </svg>