<svg xmlns="http://www.w3.org/2000/svg" viewBox="0 0 24 24">
            <g stroke-linecap="round" stroke-linejoin="round">
                <path d="M6.5 9.5C4.32 9.5.57 8.27.5 7 .45 6 3.61 3.5 7 3.5h10L20 1a1.75 1.75 0 0 1 1.5-.5h2l-4.5 8a2.06 2.06 0 0 1-1.5 1h-4" />
                <path d="M11.5 10.5H7a.5.5 0 0 1-.5-.5V8a.5.5 0 0 1 .5-.5h4.5C12.65 7.5 13 8 14 9c-1.46 1.51-1.8 1.5-2.5 1.5ZM18.5 6.5h3M9.5 5.5H11M13.5 5.5H15" />
                <rect x="11.5" y="15.5" width="12" height="8" rx="1" />
                <path d="m15 15.5.5-1a1.51 1.51 0 0 1 1.5-1h1a1.51 1.51 0 0 1 1.5 1l.5 1M11.5 18.5h12M17.5 18.5V20M1.57 5.5H5.5" />
            </g>
        </svg>