<svg viewBox="0 0 24 24" xmlns="http://www.w3.org/2000/svg">
            <g stroke-linecap="round" stroke-linejoin="round">
                <path
                    d="M13.5 12.987a2.5 2.5 0 0 1-3 0M23 23.487v-1.106a1.976 1.976 0 0 0-.77-1.579c-1.33-1.019-4.5-2.815-10.23-2.815S3.105 19.783 1.77 20.8A1.976 1.976 0 0 0 1 22.381v1.106M14 10.237a.25.25 0 1 1-.25.25.25.25 0 0 1 .25-.25M10 10.237a.25.25 0 1 1-.25.25.25.25 0 0 1 .25-.25"
                />
                <path d="M6 4.124v6.363a6 6 0 0 0 12 0V4.124" />
                <path
                    d="M11.778.538a.979.979 0 0 1 .444 0l9.705 2.205a.25.25 0 0 1 0 .488l-9.7 2.206a1.008 1.008 0 0 1-.444 0l-9.7-2.206a.25.25 0 0 1 0-.488ZM6 7.487s1.5 1 6 1 6-1 6-1M2 3.202v5.285M3 12.487a7.17 7.17 0 0 0-1-4 7.17 7.17 0 0 0-1 4ZM17.17 18.556 12 23.487l-5.17-4.931M18 8.987c0 1.716.489 4.964 2.315 6.17a.506.506 0 0 1-.029.882 4.512 4.512 0 0 1-2.783.3M6 8.987c0 1.716-.489 4.964-2.315 6.17a.506.506 0 0 0 .029.882 4.508 4.508 0 0 0 2.791.294"
                />
            </g>
        </svg>