<svg xmlns="http://www.w3.org/2000/svg" viewBox="0 0 24 24">
            <g stroke-linecap="round" stroke-linejoin="round">
                <path d="M22.5 23.5a5.367 5.367 0 00-9 0M10.5 23.5a5.367 5.367 0 00-9 0M16.5 11a5.367 5.367 0 00-9 0M9.249 2.1a5.4 5.4 0 003.884 1.65 5.4 5.4 0 002.138-.44" />
                <path d="M8.8 3.75a3.25 3.25 0 106.5 0 3.25 3.25 0 10-6.5 0zM3.249 14.6a5.4 5.4 0 006.022 1.21" />
                <path d="M2.8 16.25a3.25 3.25 0 106.5 0 3.25 3.25 0 10-6.5 0zM15.249 14.6a5.4 5.4 0 006.022 1.21" />
                <path d="M14.8 16.25a3.25 3.25 0 106.5 0 3.25 3.25 0 10-6.5 0z" />
            </g>
        </svg>