<svg viewBox="0 0 24 24" xmlns="http://www.w3.org/2000/svg">
            <g stroke-linecap="round" stroke-linejoin="round">
                <path d="M23.5 8a.5.5 0 0 1-.5.5h-1.5v-3H23a.5.5 0 0 1 .5.5ZM21.5 9.5H.5M8.5 4.5h7v2h-7zM21.5 4.5v-1M5.5 3a.5.5 0 0 0-.5-.5H4a.5.5 0 0 0-.5.5v1.5h2Z" />
                <path d="M2.5 4.5a2 2 0 0 0-2 2v4.657a.5.5 0 0 0 .3.458 3.505 3.505 0 0 1 2.013 3.971l-1.178 5.306a.5.5 0 0 0 .488.608H7.5l2-9H21a.5.5 0 0 0 .5-.5V4.5Z" />
                <path d="m14.5 12.5-.544 1.632a2 2 0 0 1-1.9 1.368H8.833M7.5 21.5h2" />
            </g>
        </svg>