<svg viewBox="0 0 24 24" xmlns="http://www.w3.org/2000/svg">
            <g stroke-linecap="round" stroke-linejoin="round">
                <path d="M17 13a5.786 5.786 0 0 0 3 4M17 7c-2-2-3-3-3-4.5a2 2 0 0 1 2-2 2.457 2.457 0 0 1 1 .5 2.457 2.457 0 0 1 1-.5 2 2 0 0 1 2 2C20 4 19 5 17 7Z" />
                <path d="M17 7c-2 2-3 3-4.5 3a2 2 0 0 1-2-2 2.457 2.457 0 0 1 .5-1 2.457 2.457 0 0 1-.5-1 2 2 0 0 1 2-2C14 4 15 5 17 7Z" />
                <path d="M17 7c2 2 3 3 3 4.5a2 2 0 0 1-2 2 2.457 2.457 0 0 1-1-.5 2.457 2.457 0 0 1-1 .5 2 2 0 0 1-2-2C14 10 15 9 17 7Z" />
                <path d="M17 7c2-2 3-3 4.5-3a2 2 0 0 1 2 2 2.457 2.457 0 0 1-.5 1 2.457 2.457 0 0 1 .5 1 2 2 0 0 1-2 2C20 10 19 9 17 7ZM.5 22.5a1 1 0 0 0 1 1h14a1 1 0 0 0 1-1" />
                <path d="M6.5 23.5v-3a1 1 0 0 1 1-1h2a1 1 0 0 1 1 1v3M3.5 20.5h3M10.5 20.5h3M13.5 23.5v-3.315a38.021 38.021 0 0 1 .3-4.807M8.737 9.5H3.5a1.171 1.171 0 0 0-1.136 1.455 38.088 38.088 0 0 1 1.136 9.23V23.5" />
            </g>
        </svg>