<svg viewBox="0 0 24 24" xmlns="http://www.w3.org/2000/svg">
            <g stroke-linecap="round" stroke-linejoin="round">
                <path d="M15.5 17.5a3 3 0 1 0 6 0 3 3 0 1 0-6 0ZM.5 10.5 4.212 4a1 1 0 0 1 .868-.5h8.854a1 1 0 0 1 .857.486L17.5 8.5M8.5 3.5v7M13.5 8.5 12 7M13 6l-2 2" />
                <path
                    d="M1.707 14.293a.707.707 0 0 1-1.207-.5V10.5h10a2.414 2.414 0 0 0 1.707-.707L13.5 8.5h8a2 2 0 0 1 2 2v3.293a.707.707 0 0 1-1.207.5l-1.086-1.086A2.414 2.414 0 0 0 19.5 12.5h-2a2.414 2.414 0 0 0-1.707.707l-2 2a1 1 0 0 1-.707.293h-2.172a1 1 0 0 1-.707-.293l-2-2A2.414 2.414 0 0 0 6.5 12.5h-2a2.414 2.414 0 0 0-1.707.707ZM23.5 10.5h-2M18.5 17.25a.25.25 0 0 0-.25.25M18.75 17.5a.25.25 0 0 0-.25-.25M18.5 17.75a.25.25 0 0 0 .25-.25M18.25 17.5a.25.25 0 0 0 .25.25"
                />
                <path d="M2.5 17.5a3 3 0 1 0 6 0 3 3 0 1 0-6 0Z" />
                <path d="M5.5 17.25a.25.25 0 0 0-.25.25M5.75 17.5a.25.25 0 0 0-.25-.25M5.5 17.75a.25.25 0 0 0 .25-.25M5.25 17.5a.25.25 0 0 0 .25.25" />
            </g>
        </svg>