<svg xmlns="http://www.w3.org/2000/svg" viewBox="0 0 24 24">
            <g stroke-linecap="round" stroke-linejoin="round">
                <path d="M4.51 20a2.5 1.5 0 105 0 2.5 1.5 0 10-5 0zM14.5 20a2.5 1.5 0 105 0 2.5 1.5 0 10-5 0zM9.5 7a2.5 2.5 0 105 0 2.5 2.5 0 10-5 0z" />
                <path
                    d="M7.5 4.5a4.219 4.219 0 014.5-4 4.22 4.22 0 014.5 4M16.5 4.5h1a2 2 0 010 4h-1zM7.5 4.5H6.459a2 2 0 000 4H7.5zM7.5 14.521A3.534 3.534 0 0111 11.5h2a3.535 3.535 0 013.5 3.021M23.462 22.225l-1.429-5a1 1 0 00-.962-.725H2.929a1 1 0 00-.962.725l-1.428 5A1 1 0 001.5 23.5h21a1 1 0 00.962-1.275z"
                />
            </g>
        </svg>