<svg viewBox="0 0 24 24" xmlns="http://www.w3.org/2000/svg">
            <g stroke-linecap="round" stroke-linejoin="round">
                <path d="M12 6.5a7.477 7.477 0 0 1 5 1.482M23.5 9.5a2 2 0 0 1-2 2" />
                <path
                    d="M9.55 3.78a3.5 3.5 0 0 0-3.925-1.667.5.5 0 0 0-.217.847A3.5 3.5 0 0 1 6.4 4.646a.5.5 0 0 1-.212.541 7.811 7.811 0 0 0-3.61 5.313H1.5a1 1 0 0 0-1 1v2a1 1 0 0 0 1 1h1.7a9.631 9.631 0 0 0 8.8 5c5.247 0 9.5-3.581 9.5-8 0-5.167-5.8-9.1-11.95-7.72Z"
                />
                <path d="M6 9.75a.25.25 0 1 1-.25.25.251.251 0 0 1 .25-.25M7.504 18.546l-1 3.454M16.504 18.546l1 3.454" />
            </g>
        </svg>