<svg viewBox="0 0 24 24" xmlns="http://www.w3.org/2000/svg">
            <g stroke-linecap="round" stroke-linejoin="round">
                <path
                    d="M5.791 14.7S16.736 3.722 17.444 3.015c.785-.786 3.318-1.378 4.578-1.632a.5.5 0 0 1 .589.589c-.254 1.26-.846 3.792-1.632 4.578L9.311 18.217ZM7.201 13.274l3.526 3.529M14.615 12.915a21.771 21.771 0 0 1-.353 4.6 6.82 6.82 0 0 1-1.416 2.122l-2.517 2.513a.5.5 0 0 1-.851-.412l.489-4.176M11.079 9.379a21.859 21.859 0 0 0-4.625.321 6.79 6.79 0 0 0-2.092 1.445l-2.51 2.509a.5.5 0 0 0 .415.85l4.2-.514M7.19 18.217c.708.707.413 1.709-.353 2.476-.717.716-3.435 1.533-4.826 1.915A.5.5 0 0 1 1.4 22c.378-1.395 1.187-4.121 1.9-4.839.777-.776 1.769-1.06 2.476-.353"
                />
            </g>
        </svg>