<svg viewBox="0 0 24 24" xmlns="http://www.w3.org/2000/svg">
            <g stroke-linecap="round" stroke-linejoin="round">
                <path d="M15.749 3a2.5 2.5 0 1 0 5 0 2.5 2.5 0 1 0-5 0ZM22.752 21.56a2.5 2.5 0 0 1-3 1.875L3.188 19.621a2.5 2.5 0 0 1-1.875-3" />
                <path
                    d="m22.213 11.351-5.219-4.378a5.469 5.469 0 0 0-1.975-1.085l-2.787-.851a2.508 2.508 0 0 1-1.472-1.2L9.544 1.745a1.5 1.5 0 1 0-2.592 1.51l1.2 2.061a5.472 5.472 0 0 0 3.2 2.591l1.63.5-2.976 1.693a1.53 1.53 0 0 0-.5.467 1.5 1.5 0 0 0-.252.739c-.091 1.365.35 2.6-.829 3.189l-2.353 1.166a1.5 1.5 0 1 0 1.35 2.68l2.349-1.169c3.8-1.914.679-4.135 3.853-1.851a1.5 1.5 0 0 1 .623 1.217V19a1.5 1.5 0 0 0 3 0v-2.463a4.509 4.509 0 0 0-1.87-3.652l-1.855-1.335 2.539-1.442 4.222 3.542a1.501 1.501 0 0 0 1.93-2.3Z"
                />
            </g>
        </svg>