<svg viewBox="0 0 24 24" xmlns="http://www.w3.org/2000/svg">
            <g stroke-linecap="round" stroke-linejoin="round">
                <path d="M8.546 9.244A2.262 2.262 0 0 0 7.5 11v7.5c0 2.5 2.5 5 4.5 5s4.5-2.5 4.5-5V11a2.262 2.262 0 0 0-1.046-1.756" />
                <path
                    d="M10.25 13.25a.25.25 0 0 1 .25.25M10 13.5a.25.25 0 0 1 .25-.25M10.25 13.75a.25.25 0 0 1-.25-.25M10.5 13.5a.25.25 0 0 1-.25.25M13.75 13.25a.25.25 0 0 1 .25.25M13.5 13.5a.25.25 0 0 1 .25-.25M13.75 13.75a.25.25 0 0 1-.25-.25M14 13.5a.25.25 0 0 1-.25.25M12.5 19.5l-.5 1-.5-1h1zM18 10.5c1.969 0 5.5-1.027 5.5-4.5V1.5a1 1 0 0 0-2 0v4a1 1 0 0 1-2 0v-3a1 1 0 0 0-2 0v3a1 1 0 0 1-1 1h-9a1 1 0 0 1-1-1v-3a1 1 0 0 0-2 0v3a1 1 0 0 1-2 0v-4a1 1 0 0 0-2 0V6c0 3.473 3.531 4.5 5.5 4.5"
                />
            </g>
        </svg>