<svg viewBox="0 0 24 24" xmlns="http://www.w3.org/2000/svg">
            <g stroke-linecap="round" stroke-linejoin="round">
                <path
                    d="M5.251 3a2.5 2.5 0 1 0 5 0 2.5 2.5 0 1 0-5 0ZM7.751 22v-5M13.252 8.6l-1.65-.87a2 2 0 0 0-.933-.231H4.751a3 3 0 0 0-3 3V16a1.5 1.5 0 0 0 3 0v6a1.5 1.5 0 0 0 3 0 1.5 1.5 0 0 0 3 0V11.809a.5.5 0 0 1 .724-.447l1.282.638M20.643 22.684a1 1 0 0 1-.984.816H17.32a1 1 0 0 1-.984-.816l-1.261-6.729a20.18 20.18 0 0 1 2.993-14.84.511.511 0 0 1 .844 0 20.184 20.184 0 0 1 2.988 14.84ZM14.919 14.998 21.97 8.88M15.651 19.021l6.57-5.703"
                />
            </g>
        </svg>