<svg viewBox="0 0 24 24" xmlns="http://www.w3.org/2000/svg">
            <g stroke-linecap="round" stroke-linejoin="round">
                <path
                    d="M19.5 16.151v2.5a.5.5 0 0 1-.5.5H5a.5.5 0 0 1-.5-.5v-2.5M6.109 10.51A5.751 5.751 0 0 1 3 5.353a.5.5 0 0 0-.88-.329A6.743 6.743 0 0 0 4.5 15.568M17.891 10.51A5.751 5.751 0 0 0 21 5.353a.5.5 0 0 1 .88-.329 6.743 6.743 0 0 1-2.38 10.544M13.89 7.251a1 1 0 0 0-1-1.1h-1.785a1 1 0 0 0-1 1.1l.89 8.9h2Z"
                />
                <path d="M10.173 7.876A7.5 7.5 0 0 0 4.5 15.151v1h15v-1a7.5 7.5 0 0 0-5.673-7.275" />
            </g>
        </svg>