<svg viewBox="0 0 24 24" xmlns="http://www.w3.org/2000/svg">
            <g stroke-linecap="round" stroke-linejoin="round">
                <path
                    d="M1.5 17.5a3.5 3.5 0 1 0 7 0 3.5 3.5 0 1 0-7 0ZM15 17.5a3.5 3.5 0 1 0 7 0 3.5 3.5 0 1 0-7 0ZM17.5 7l-1.324-3.532A.779.779 0 0 0 15.5 3h-2M21.5 12.858V10.5a1.391 1.391 0 0 0-.354-.854L20.5 9h0a2 2 0 0 0-2-2h-4v2.5a.5.5 0 0 1-.5.5H7.5V9H2.164a.664.664 0 0 0-.664.664v3.6M9.5 10V6M11.5 12h1"
                />
                <path d="M4 17.5a1 1 0 1 0 2 0 1 1 0 1 0-2 0ZM17.5 17.5a1 1 0 1 0 2 0 1 1 0 1 0-2 0ZM.5 14.337a5.5 5.5 0 0 1 9.264.413.5.5 0 0 0 .436.25h3.1a.5.5 0 0 0 .433-.25A5.5 5.5 0 0 1 18.5 12a5.654 5.654 0 0 1 5 3" />
            </g>
        </svg>