<svg xmlns="http://www.w3.org/2000/svg" viewBox="0 0 24 24">
            <g stroke-linecap="round" stroke-linejoin="round">
                <path
                    d="M23.5 23.5v-1a4 4 0 00-2.6-3.745l-5.344-1.795M8.444 16.96L3.1 18.755A4 4 0 00.5 22.5v1M18.021 8.5h-.68a1 1 0 01-.98-.8l-.34-1.7a10.206 10.206 0 01-4.2-.853A3.128 3.128 0 0110 2.283V.692M11 9a1.089 1.089 0 00-1-.5A1.089 1.089 0 009 9M15 9a1.089 1.089 0 00-1-.5 1.089 1.089 0 00-1 .5"
                />
                <path
                    d="M7.5 17.277v3.029a.5.5 0 00.658.475L12 19.5l-3.556-2.54M16.5 17.277v3.029a.5.5 0 01-.658.475L12 19.5l3.556-2.54M12 23.5v-4M13 12a1.536 1.536 0 00-1 .322A1.532 1.532 0 0011 12c-2.393 0-2.5 2.75-5.132 2.107a.257.257 0 00-.316.31C5.962 16 8.733 16 9.5 16a3.047 3.047 0 002.5-1.235A3.05 3.05 0 0014.5 16c.767 0 3.538 0 3.949-1.583a.257.257 0 00-.316-.31C15.5 14.75 15.393 12 13 12z"
                />
                <path
                    d="M16.209 13.875a4.366 4.366 0 00.723-1.74 1 1 0 01.572-.746c1.078-.491 1.348-2.452.477-2.889.5-2.986.5-8-5.981-8s-6.477 5.014-5.981 8c-.871.437-.6 2.4.477 2.889a1 1 0 01.572.746 4.366 4.366 0 00.723 1.74M6.018 4.5H8M5.828 6.5h2.671"
                />
            </g>
        </svg>