<svg xmlns="http://www.w3.org/2000/svg" viewBox="0 0 24 24">
            <g stroke-linecap="round" stroke-linejoin="round">
                <path d="M6.227 18.5h9.548M19.225 18.5H22.5a1 1 0 001-1v-5a4.234 4.234 0 00-.447-1.894L21 6.5a3.618 3.618 0 00-3.236-2H2.5a2 2 0 00-2 2v11a1 1 0 001 1h1.275" />
                <path d="M15.5 17.5a2 2 0 104 0 2 2 0 10-4 0zM2.5 17.5a2 2 0 104 0 2 2 0 10-4 0zM21 6.5H.5M23.5 16L21 13.817a5.323 5.323 0 00-3.5-1.317H.5M4.5 8.5h-2M4.5 10.5h-2M6.5 6.5v3a1 1 0 001 1H23M11.5 10.5v-4M17.5 10.5v-4" />
            </g>
        </svg>