<svg viewBox="0 0 24 24" xmlns="http://www.w3.org/2000/svg">
            <g stroke-linecap="round" stroke-linejoin="round">
                <path
                    d="M17.525 9.5V8.277A2.631 2.631 0 0 1 18.586 5.8l3.889-3.889L21.025.5l-3.888 3.889a2.635 2.635 0 0 1-2.476 1.06 5.565 5.565 0 0 0-4.242 1.414L7.787 9.495M9.712 7.571 11.641 9.5M20.353 4.035l-1.431-1.431M4.025 11.5h15l-2.81 11.243a1 1 0 0 1-.97.757H7.806a1 1 0 0 1-.97-.757ZM4.025 11.5a2.5 2.5 0 0 0-.9 4.835M19.025 11.5a2.5 2.5 0 0 1 .9 4.835"
                />
            </g>
        </svg>