<svg viewBox="0 0 24 24" xmlns="http://www.w3.org/2000/svg">
            <g stroke-linecap="round" stroke-linejoin="round">
                <path
                    d="M9 2.996a2.5 2.5 0 1 0 5 0 2.5 2.5 0 1 0-5 0ZM12.8 9.5a1 1 0 0 1-.771-.362L10.1 6.982a1.5 1.5 0 0 0-2.425.3l-3.49 6.482A1.516 1.516 0 0 0 4 14.5v3.146l-1.842 3.681a1.5 1.5 0 1 0 2.684 1.342l2-4A1.5 1.5 0 0 0 7 18v-1.7l1.771.322a1.5 1.5 0 0 1 1.2 1.15l.568 2.556a1.5 1.5 0 0 0 2.928-.65l-.567-2.561a4.49 4.49 0 0 0-3.587-3.451L7.8 13.392l1.522-2.827a4.655 4.655 0 0 0 3.722 1.935H15.5a1.5 1.5 0 0 0 0-3s-1.817 0-2.7 0ZM3.227 10.57a1 1 0 0 1-1.368.359L1 10.424a1 1 0 0 1-.364-1.368l2.775-4.749a1 1 0 0 1 1.368-.359l.863.505A1 1 0 0 1 6 5.821Z"
                />
                <path d="m9 21.996-1.5 1.5h16M23 .5 21.336 3A2 2 0 0 0 21 4.1v3.067a2 2 0 0 1-.586 1.414l-.828.828A2 2 0 0 0 19 10.823v4.662c0 1.178-1.555 3.134-2.86 4.01" />
            </g>
        </svg>