<svg xmlns="http://www.w3.org/2000/svg" viewBox="0 0 24 24">
            <g stroke-linecap="round" stroke-linejoin="round">
                <path
                    d="M18.68 22.62a1 1 0 0 1-1 .88H6.32a1 1 0 0 1-1-.88L3.5 8.56a.52.52 0 0 1 .13-.39A.48.48 0 0 1 4 8h16a.48.48 0 0 1 .37.17.52.52 0 0 1 .13.39ZM6.5 8l1 15.5M10 8l.5 15.5M17.5 8l-1 15.5M14 8l-.5 15.5M21 6.5a2.87 2.87 0 0 0-2.78-2.57A2.23 2.23 0 0 0 15 2.26 3.12 3.12 0 0 0 12 .5h0a3.12 3.12 0 0 0-3 1.76 2.23 2.23 0 0 0-3.22 1.67A2.87 2.87 0 0 0 3 6.5"
                />
            </g>
        </svg>