<svg xmlns="http://www.w3.org/2000/svg" viewBox="0 0 24 24">
            <g stroke-linecap="round" stroke-linejoin="round">
                <path
                    d="M7.15 10.85a1.21 1.21 0 0 1 1.7 0L11 13l9.15-9.15a1.21 1.21 0 0 1 1.7 0l1.3 1.3a1.21 1.21 0 0 1 0 1.7l-11.3 11.3a1.21 1.21 0 0 1-1.7 0l-4.3-4.3a1.2 1.2 0 0 1 0-1.7ZM4.11 11.11l-.26-.26a1.2 1.2 0 0 0-1.7 0l-1.3 1.3a1.21 1.21 0 0 0 0 1.7l4.3 4.3c.47.47 1.1.6 1.94-.24M17.09 4.09l-.24-.24a1.2 1.2 0 0 0-1.7 0L9.88 9.12"
                />
            </g>
        </svg>