<svg viewBox="0 0 24 24" xmlns="http://www.w3.org/2000/svg">
            <g stroke-linecap="round" stroke-linejoin="round">
                <path
                    d="M6.352 16.54 3.8 22.518M1.5 21.536 6.099 23.5M7.063 5.97 13.5 8.72M8.398 9.02h0M8.4 9.02a.25.25 0 1 0 .132.328.25.25 0 0 0-.132-.328M9.898 12.02h0M9.9 12.02a.25.25 0 1 0 .132.328.25.25 0 0 0-.132-.328M17.02 9.083a.25.25 0 1 0 .328-.132h0a.25.25 0 0 0-.328.132M17.52 13.083a.25.25 0 1 0 .328-.131h0a.25.25 0 0 0-.328.131M19.02 11.083a.25.25 0 1 0 .328-.131h0a.25.25 0 0 0-.328.131M6.898 13.02h0M6.9 13.02a.25.25 0 1 0 .132.328.25.25 0 0 0-.132-.328"
                />
                <path d="m4.246 11.291 5.222-9.778a.5.5 0 0 1 .637-.224l4.675 2a.5.5 0 0 1 .278.615L11.6 14.434a4 4 0 0 1-7.356-3.143ZM18.963 16.214l1.071 6.411M22.5 22.213l-4.932.824M20.768 5.774l-4.291.717" />
                <path d="M14.359 12.927a4 4 0 1 0 7.891-1.318L19.483.875a.5.5 0 0 0-.567-.368l-3.906.653" />
            </g>
        </svg>