<svg xmlns="http://www.w3.org/2000/svg" fill="none" viewBox="0 0 24 24">
  <path d="M13.5 11a2.5 2.5 0 0 1-3 0M23 23.5v-3.106a1.976 1.976 0 0 0-.77-1.579C20.9 17.8 17.73 16 12 16s-8.895 1.8-10.23 2.815A1.976 1.976 0 0 0 1 20.394V23.5M10 8.75a.25.25 0 0 1 0-.5M10 8.75a.25.25 0 1 0 0-.5M14 8.75a.25.25 0 1 1 0-.5M14 8.75a.25.25 0 1 0 0-.5"/>
  <path d="M6.115 5.327C6.039 5.713 6 6.107 6 6.5v2a6 6 0 0 0 12 0v-2c0-.394-.039-.787-.115-1.173M16.8 2.9a6 6 0 0 0-9.6 0"/>
  <path d="M18 8.5a2 2 0 0 1-1.9-1.365.994.994 0 0 0-.958-.635H8.855a.994.994 0 0 0-.958.635A2 2 0 0 1 6 8.5M6 8.5v6M18 8.5v6"/>
  <path d="M12 4c0 1.105-1.843 2.5-3.5 2.5S6 6 6 4.5c0-1.1 1.343-2 3-2s3 .4 3 1.5ZM12 4c0 1.105 1.843 2.5 3.5 2.5S18 6 18 4.5c0-1.1-1.343-2-3-2s-3 .4-3 1.5ZM12 18.5v5M5.036 17.1 8.3 20.717a1 1 0 0 0 1.45.038L12 18.5l-3.083-2.312M18.963 17.1l-3.258 3.62a1 1 0 0 1-1.45.038L12 18.5l3.083-2.312"/>
</svg>