<svg xmlns="http://www.w3.org/2000/svg" viewBox="0 0 24 24">
            <g stroke-linecap="round" stroke-linejoin="round">
                <path d="M10.344 15.032a1.958 1.958 0 001.351.5h.281a1.953 1.953 0 001.35-.5M10.841 11.056a1.081 1.081 0 00-.994-.5 1.083 1.083 0 00-.994.5M14.817 11.056a1.081 1.081 0 00-.994-.5 1.083 1.083 0 00-.994.5" />
                <path
                    d="M11.855 18.511c1.379 0 4.463-1.711 4.9-4.338a1 1 0 01.569-.742c1.072-.487 1.34-2.438.475-2.872.493-2.967.5-7.951-5.946-7.951S5.417 7.592 5.91 10.559c-.865.434-.6 2.385.475 2.872a1 1 0 01.569.742c.439 2.627 3.523 4.338 4.901 4.338z"
                />
                <path d="M5.72 8.556c1.33-.031 4.01.376 6.115-2.157 2.116 2.545 4.842 2.132 6.155 2.166M17.233 20.043a5.909 5.909 0 01-10.752 0" />
                <path
                    d="M23 23.481a3.967 3.967 0 00-2.294-2.272l-5-1.678a.5.5 0 00-.568.19 3.976 3.976 0 01-6.564 0 .5.5 0 00-.568-.19l-5 1.678a3.966 3.966 0 00-2.294 2.272M16.86 13.869a5.386 5.386 0 006.428 1.043S21.3 12.924 21.3 4.973a4.473 4.473 0 00-7.927-2.842l-.454.526"
                />
            </g>
        </svg>