<svg viewBox="0 0 24 24" xmlns="http://www.w3.org/2000/svg">
            <g stroke-linecap="round" stroke-linejoin="round">
                <path d="M15.052 8.391c0 3.878-3.053 7.022-3.053 7.022s-3.052-3.144-3.052-7.022a11.053 11.053 0 0 1 2.667-6.58.5.5 0 0 1 .771 0 11.053 11.053 0 0 1 2.667 6.58Z" />
                <path d="M14.307 4.87a10.8 10.8 0 0 1 2.9-1.676.5.5 0 0 1 .665.347c.315 1.273.938 4.61-.314 7.319C15.979 14.285 12 15.413 12 15.413" />
                <path d="M18.3 7.354a9.911 9.911 0 0 1 3.35.094.5.5 0 0 1 .394.58c-.224 1.239-1.024 4.616-3.279 6.367-2.8 2.169-6.77 1.018-6.77 1.018" />
                <path d="M9.788 4.949a10.769 10.769 0 0 0-3-1.755.5.5 0 0 0-.665.347c-.315 1.274-.938 4.61.314 7.319C8.02 14.285 12 15.413 12 15.413" />
                <path
                    d="M5.724 7.358a9.894 9.894 0 0 0-3.379.09.5.5 0 0 0-.394.58c.225 1.239 1.024 4.616 3.279 6.372C8.026 16.564 12 15.413 12 15.413s0-.027-.01-.077M18.528 16.648a.951.951 0 0 1 .472.723c0 1.1-3.134 2-7 2s-7-.9-7-2a.76.76 0 0 1 .233-.514"
                />
                <path d="M21.937 14.852a3.271 3.271 0 0 1 1.563 2.519c0 2.761-5.149 5-11.5 5s-11.5-2.239-11.5-5A3.222 3.222 0 0 1 2 14.9M12 17.371v-2" />
            </g>
        </svg>