<svg xmlns="http://www.w3.org/2000/svg" viewBox="0 0 24 24">
            <g stroke-linecap="round" stroke-linejoin="round">
                <path d="M7.5 5.591v15.885M14.5 10.591V.705M13.5 17.305l-5.709 4.078a.5.5 0 01-.582 0l-6.5-4.643a.5.5 0 01-.209-.407V1.562a.5.5 0 01.791-.406L7.5 5.591 14.209.8a.5.5 0 01.582 0l6.5 4.643a.5.5 0 01.209.407v4.743" />
                <path d="M19.5 12.591a4 4 0 014 4c0 1.781-2.6 5.24-3.608 6.514a.5.5 0 01-.784 0C18.1 21.831 15.5 18.372 15.5 16.591a4 4 0 014-4z" />
                <path d="M18 16.591a1.5 1.5 0 103 0 1.5 1.5 0 10-3 0z" />
            </g>
        </svg>