<svg xmlns="http://www.w3.org/2000/svg" viewBox="0 0 24 24">
            <g stroke-linecap="round" stroke-linejoin="round">
                <path d="M16.003 6.861a1.25 1.25 0 102.5 0 1.25 1.25 0 10-2.5 0zM21.003 5.361a1.25 1.25 0 102.5 0 1.25 1.25 0 10-2.5 0z" />
                <path d="M18.5 6.861V2.332a1 1 0 01.683-.949l3-.833a1 1 0 011.317.95v3.861M13.003 14.749a1.25 1.25 0 102.5 0 1.25 1.25 0 10-2.5 0zM15.503 14.749v-4.25" />
                <path d="M8.582 13.622a10.5 10.5 0 012.957-10.263.5.5 0 00-.339-.859 10.5 10.5 0 105.063 19.588.5.5 0 00-.126-.917 10.5 10.5 0 01-7.555-7.549z" />
            </g>
        </svg>