<svg xmlns="http://www.w3.org/2000/svg" viewBox="0 0 24 24">
            <g stroke-linecap="round" stroke-linejoin="round">
                <path
                    d="M13.5 11a2.5 2.5 0 01-3 0M23 23.5v-3.106a1.976 1.976 0 00-.77-1.579C20.9 17.8 17.73 16 12 16s-8.895 1.8-10.23 2.815A1.976 1.976 0 001 20.394V23.5M14 8.25a.25.25 0 11-.25.25.25.25 0 01.25-.25M10 8.25a.25.25 0 11-.25.25.25.25 0 01.25-.25"
                />
                <path d="M18 6.5a6 6 0 00-12 0v2a6 6 0 0012 0z" />
                <path d="M18 6.481A5.566 5.566 0 0114 4.5c-1.942 2.337-4.673 2-6 2H6M8.083 16.312a4 4 0 007.834 0" />
            </g>
        </svg>