<svg viewBox="0 0 24 24" xmlns="http://www.w3.org/2000/svg">
            <g stroke-linecap="round" stroke-linejoin="round">
                <path
                    d="m14.391 3.079 6.531 6.529M20.744 2.358a1 1 0 0 1 .9.9c.24 2.436-.477 9.481-4.676 13.68S5.69 21.882 3.254 21.642a1 1 0 0 1-.9-.9c-.238-2.437.509-9.51 4.707-13.709S18.306 2.12 20.744 2.358ZM8.465 14.829l6.363-6.363M8.465 12.708l2.121 2.121M10.586 10.586l2.121 2.122M12.707 8.466l2.121 2.12M2.811 15.54l5.65 5.649"
                />
            </g>
        </svg>