<svg viewBox="0 0 24 24" xmlns="http://www.w3.org/2000/svg">
            <g stroke-linecap="round" stroke-linejoin="round">
                <path
                    d="M.5 23.5h23M7.5 23.5v-18a1 1 0 0 1 1-1h7a1 1 0 0 1 1 1v18M22.5 23.5V14a.5.5 0 0 0-.5-.5h-3a.5.5 0 0 0-.5.5v9.5M5.5 23.5V14a.5.5 0 0 0-.5-.5H2a.5.5 0 0 0-.5.5v9.5M4.5 13.5v-1M19.5 13.5v-1M13.5 4.5V3a.5.5 0 0 0-.5-.5h-2a.5.5 0 0 0-.5.5v1.5M12.5 2.5v-2M9.5 7.5h5M9.5 10.5h5M9.5 13.5h5M9.5 16.5h5M9.5 19.5h5"
                />
            </g>
        </svg>