<svg viewBox="0 0 24 24" xmlns="http://www.w3.org/2000/svg">
            <g stroke-linecap="round" stroke-linejoin="round">
                <path
                    d="M17.47 16.938a.489.489 0 0 0 .544.271c1.056-.215 4.033-.933 4.712-2.3.958-1.929-1.3-3.813-3.039-1.749.6-2.63-2.272-3.293-3.23-1.364-.679 1.366.543 4.168 1.013 5.142ZM19.608 8.62a.488.488 0 0 0 .589-.1c.868-.917 3.6-3.99 3.276-5.96-.444-2.7-4.217-2.953-4.484.462-1.348-3.149-4.841-1.7-4.4 1C14.918 6 18.492 8.029 19.608 8.62ZM4.5 19.5h-2a2 2 0 1 0 2 2ZM13.5 16.5h-2a2 2 0 1 0 2 2Z"
                />
                <path d="M13.5 16.5V7.194a.5.5 0 0 0-.658-.475l-8 2.667a.5.5 0 0 0-.342.474v9.64M13.5 9l-9 3" />
            </g>
        </svg>