<svg xmlns="http://www.w3.org/2000/svg" viewBox="0 0 24 24">
            <circle cx="12" cy="12" r="11.5" stroke-linecap="round" stroke-linejoin="round" />
            <path stroke-linecap="round" stroke-linejoin="round" d="M3.822 9.736a27.673 27.673 0 0 1 16.356 0" />
            <circle cx="12" cy="12" r="8.5" fill="none" stroke-linecap="round" stroke-linejoin="round" />
            <circle cx="12" cy="12" r="1.5" fill="none" stroke-linecap="round" stroke-linejoin="round" />
            <path
                fill="none"
                stroke="#000"
                stroke-linecap="round"
                stroke-linejoin="round"
                d="M3.532 12.517c.155-.011.311-.017.468-.017a6.5 6.5 0 0 1 6.5 6.5 6.313 6.313 0 0 1-.143 1.342M13.639 20.342A5.762 5.762 0 0 1 13.5 19a6.5 6.5 0 0 1 6.5-6.5c.18 0 .307.027.482.042"
            />
        </svg>