<svg viewBox="0 0 24 24" xmlns="http://www.w3.org/2000/svg">
            <g stroke-linecap="round" stroke-linejoin="round">
                <path d="M20.5 15a6 6 0 0 1-6 6h-8a6 6 0 0 1 0-12h8a6 6 0 0 1 6 6ZM22.5 20v-6M.842 17H23.5M9.5 7V5a2 2 0 0 0-2-2H6" />
                <path d="M3.5 13.5a1.5 1.5 0 1 0 3 0 1.5 1.5 0 1 0-3 0ZM8.5 13.5a1.5 1.5 0 1 0 3 0 1.5 1.5 0 1 0-3 0ZM13.5 13.5a1.5 1.5 0 1 0 3 0 1.5 1.5 0 1 0-3 0ZM12.5 9V7.5A.5.5 0 0 0 12 7H8a.5.5 0 0 0-.5.5V9" />
            </g>
        </svg>