<svg xmlns="http://www.w3.org/2000/svg" viewBox="0 0 24 24">
            <g stroke-linecap="round" stroke-linejoin="round">
                <path
                    d="M10.5.5v1.82M10.5 18.68v1.82M3.43 3.43l1.28 1.28M.5 10.5h1.82M18.68 10.5h1.82M3.43 17.57l1.28-1.28M16.29 4.71l1.28-1.28M23.5 16.69a4.18 4.18 0 0 0-4-4.19 4.18 4.18 0 0 0-4 4.19c0 2.54 2.29 5.24 4 6.81 1.71-1.57 4-3.85 4-6.81Z"
                />
                <circle cx="19.5" cy="16.5" r="1.5" />
                <path d="M13.5 15.7a6 6 0 1 1 3-5.2v.5" />
            </g>
        </svg>