<svg viewBox="0 0 24 24" xmlns="http://www.w3.org/2000/svg">
            <g stroke-linecap="round" stroke-linejoin="round">
                <path
                    d="m19.491 15.106 2.4-2.4a1 1 0 0 0 0-1.414l-2.4-2.4V5.5a1 1 0 0 0-1-1H15.1l-2.4-2.4a1 1 0 0 0-1.414 0l-2.4 2.4H5.491a1 1 0 0 0-1 1v3.394l-2.4 2.4a1 1 0 0 0 0 1.414l2.4 2.4V18.5a1 1 0 0 0 1 1h3.394l2.4 2.4a1 1 0 0 0 1.414 0l2.4-2.4h4.394Z"
                />
                <path d="M5.991 12a6 6 0 1 0 12 0 6 6 0 1 0-12 0Z" />
            </g>
        </svg>