<svg viewBox="0 0 24 24" xmlns="http://www.w3.org/2000/svg">
            <g stroke-linecap="round" stroke-linejoin="round">
                <path d="M13.253 22.524a1.247 1.247 0 0 1-2.434 0L9.036 14.5h6Z" />
                <path
                    d="M17.2 13.61a2 2 0 0 1-1.664.89h-7a2 2 0 0 1-1.664-.891L5.466 11.5h13.141ZM19.163 9.521a4.111 4.111 0 0 0 .256-1.465 5.489 5.489 0 0 0-1.634-3.813 1.885 1.885 0 0 1-2.179 1.634A4.569 4.569 0 0 1 14.517.5c-3.4 0-5.583 2.009-5.992 4.9a2 2 0 0 1-2.179-1.632A4.871 4.871 0 0 0 5.059 9.58"
                />
            </g>
        </svg>