<svg viewBox="0 0 24 24" xmlns="http://www.w3.org/2000/svg" height="24" width="24"><path d="M12.5 23.5h-11a1 1 0 0 1 -1 -1v-21a1 1 0 0 1 1 -1h21a1 1 0 0 1 1 1v21a1 1 0 0 1 -1 1h-6v-9h2.559a0.5 0.5 0 0 0 0.5 -0.438l0.375 -3a0.5 0.5 0 0 0 -0.5 -0.562H16.5V9.185A1.687 1.687 0 0 1 18.186 7.5H20a0.5 0.5 0 0 0 0.5 -0.5V4a0.5 0.5 0 0 0 -0.5 -0.5h-1.814A5.692 5.692 0 0 0 12.5 9.185V10.5H10a0.5 0.5 0 0 0 -0.5 0.5v3a0.5 0.5 0 0 0 0.5 0.5h2.5v9Z" fill="none" stroke="#000000" stroke-linecap="round" stroke-linejoin="round" stroke-width="1"></path></svg>