<svg viewBox="0 0 24 24" xmlns="http://www.w3.org/2000/svg" height="24" width="24"><path d="M12 0.5A11.467 11.467 0 0 0 0.5 11.909 11.289 11.289 0 0 0 2.691 18.6l-1.436 4.238 4.419 -1.405A11.511 11.511 0 0 0 23.5 11.91 11.468 11.468 0 0 0 12 0.5m6.907 14.535c-0.084 -0.138 -0.307 -0.223 -0.642 -0.388s-1.985 -0.972 -2.291 -1.082 -0.532 -0.167 -0.755 0.166 -0.866 1.081 -1.062 1.3 -0.391 0.25 -0.726 0.084a9.188 9.188 0 0 1 -2.7 -1.651 9.976 9.976 0 0 1 -1.864 -2.3c-0.2 -0.332 -0.021 -0.512 0.147 -0.678a3.612 3.612 0 0 0 0.838 -1.138 0.606 0.606 0 0 0 -0.028 -0.583C9.743 8.6 9.072 6.962 8.793 6.3c-0.316 -0.756 -1.725 -0.782 -2.292 -0.168 -1.789 1.941 -1.376 4.14 0.2 6.215 0.168 0.222 2.32 3.691 5.728 5.023s3.408 0.887 4.023 0.831c1.767 -0.159 2.963 -2.323 2.459 -3.163" fill="none" stroke="#000000" stroke-linecap="round" stroke-linejoin="round" stroke-width="1"></path></svg>